<svg width="200" height="200" viewBox="0 0 200 200" fill="none" xmlns="http://www.w3.org/2000/svg">
<rect width="200" height="200" fill="white"/>
<path d="M171.734 63.13H103.673C99.9144 63.13 96.868 66.1766 96.868 69.9372V90.3565C96.868 94.1171 93.8238 97.1614 90.0612 97.1614H28.8068C25.0486 97.1614 22 100.21 22 103.969V131.195C22 134.953 25.0486 138 28.8068 138H96.868C100.626 138 103.673 134.953 103.673 131.195V110.776C103.673 107.013 106.717 103.969 110.479 103.969H171.734C175.492 103.969 178.541 100.922 178.541 97.1614V69.9372C178.541 66.1766 175.492 63.13 171.734 63.13Z" fill="#6E29F6"/>
</svg>
